<?xml version="1.0" encoding="utf-8"?>
<!-- Generator: Adobe Illustrator 26.1.0, SVG Export Plug-In . SVG Version: 6.00 Build 0)  -->
<svg version="1.1" id="Capa_1" xmlns="http://www.w3.org/2000/svg" xmlns:xlink="http://www.w3.org/1999/xlink" x="0px" y="0px"
	 viewBox="0 0 902.86 902.86" style="enable-background:new 0 0 902.86 902.86;" xml:space="preserve">
<g>
	<g>
		<path d="M558.67,513.04l53.84-210.8h58.97v-33.15h-84.64l-12.76,49.73l-342.67-0.29l36.38,194.51L558.67,513.04L558.67,513.04
			L558.67,513.04z M565.57,351.83l-32.71,128.06H295.21l-24.06-128.21L565.57,351.83z"/>
		<path d="M513.2,633.77c29.19,0,52.96-23.76,52.96-52.96c0-29.19-23.76-52.96-52.96-52.96H313.55c-29.19,0-52.96,23.76-52.96,52.96
			c0,29.19,23.76,52.96,52.96,52.96c29.19,0,52.96-23.76,52.96-52.96c0-7.04-1.32-13.79-3.81-19.8h101.36
			c-2.49,6.16-3.81,12.91-3.81,19.8C460.24,610,484.01,633.77,513.2,633.77z M333.35,580.81c0,11-8.95,19.8-19.8,19.8
			c-10.86,0-19.8-8.95-19.8-19.8c0-10.86,8.95-19.8,19.8-19.8C324.55,561.01,333.35,569.81,333.35,580.81z M533.15,580.81
			c0,11-8.95,19.8-19.8,19.8s-19.8-8.95-19.8-19.8c0-10.86,8.95-19.8,19.8-19.8S533.15,569.81,533.15,580.81z"/>
	</g>
</g>
</svg>
