<?xml version="1.0" encoding="utf-8"?>
<!-- Generator: Adobe Illustrator 26.1.0, SVG Export Plug-In . SVG Version: 6.00 Build 0)  -->
<svg version="1.1" id="Capa_1" xmlns="http://www.w3.org/2000/svg" xmlns:xlink="http://www.w3.org/1999/xlink" x="0px" y="0px"
	 viewBox="0 0 64 64" style="enable-background:new 0 0 64 64;" xml:space="preserve">
<path d="M48.25,30.38c-0.23-0.31-0.47-0.63-0.51-0.87c-0.04-0.26,0.09-0.65,0.22-1.02c0.19-0.54,0.4-1.15,0.21-1.74
	c-0.19-0.6-0.73-0.97-1.2-1.3c-0.32-0.22-0.65-0.45-0.76-0.68c-0.12-0.23-0.11-0.64-0.11-1.03c0.01-0.57,0.02-1.23-0.34-1.73
	c-0.37-0.5-0.99-0.69-1.54-0.86c-0.37-0.11-0.76-0.23-0.94-0.41c-0.18-0.18-0.3-0.57-0.41-0.94c-0.17-0.55-0.36-1.18-0.86-1.54
	c-0.5-0.36-1.15-0.35-1.73-0.34c-0.39,0.01-0.8,0.01-1.03-0.11c-0.23-0.12-0.46-0.45-0.68-0.76c-0.33-0.47-0.71-1.01-1.3-1.2
	c-0.58-0.19-1.2,0.02-1.74,0.21c-0.37,0.13-0.76,0.26-1.02,0.22c-0.25-0.04-0.57-0.28-0.87-0.51C33.16,15.4,32.63,15,32,15
	c-0.63,0-1.16,0.4-1.62,0.75c-0.31,0.23-0.63,0.47-0.87,0.51c-0.26,0.04-0.65-0.09-1.02-0.22c-0.54-0.19-1.15-0.4-1.74-0.21
	c-0.6,0.19-0.97,0.73-1.3,1.2c-0.22,0.32-0.45,0.65-0.68,0.76c-0.23,0.12-0.64,0.11-1.03,0.11c-0.57-0.01-1.23-0.02-1.73,0.34
	c-0.5,0.37-0.69,0.99-0.86,1.54c-0.11,0.37-0.23,0.76-0.41,0.94c-0.18,0.18-0.57,0.3-0.94,0.41c-0.55,0.17-1.18,0.36-1.54,0.86
	c-0.36,0.5-0.35,1.15-0.34,1.73c0.01,0.39,0.01,0.8-0.11,1.03c-0.12,0.23-0.45,0.46-0.76,0.68c-0.47,0.33-1.01,0.71-1.21,1.3
	c-0.19,0.58,0.02,1.2,0.21,1.74c0.13,0.37,0.26,0.76,0.22,1.02c-0.04,0.25-0.28,0.57-0.51,0.87C15.4,30.84,15,31.37,15,32
	c0,0.63,0.4,1.16,0.75,1.62c0.23,0.31,0.47,0.63,0.51,0.87l1.05-0.17c-0.08-0.51-0.4-0.94-0.71-1.35c-0.26-0.35-0.53-0.71-0.53-0.98
	s0.27-0.63,0.53-0.98c0.31-0.41,0.63-0.84,0.71-1.35c0.08-0.52-0.09-1.04-0.27-1.53c-0.14-0.4-0.28-0.82-0.2-1.06
	c0.08-0.26,0.45-0.51,0.8-0.76c0.42-0.3,0.86-0.6,1.1-1.07c0.24-0.47,0.23-1.01,0.22-1.53c-0.01-0.43-0.01-0.87,0.14-1.08
	c0.16-0.22,0.58-0.34,0.99-0.47c0.5-0.15,1.01-0.31,1.38-0.68c0.37-0.37,0.53-0.89,0.68-1.38c0.13-0.41,0.25-0.84,0.47-0.99
	c0.21-0.16,0.66-0.15,1.08-0.14c0.52,0.01,1.06,0.02,1.53-0.22c0.46-0.24,0.77-0.68,1.07-1.1c0.25-0.35,0.5-0.72,0.76-0.8
	c0.25-0.08,0.66,0.06,1.06,0.2c0.5,0.17,1.01,0.35,1.53,0.27c0.51-0.08,0.94-0.4,1.35-0.71c0.35-0.26,0.7-0.53,0.98-0.53
	s0.63,0.27,0.98,0.53c0.41,0.31,0.84,0.63,1.35,0.71c0.52,0.08,1.04-0.09,1.53-0.27c0.4-0.14,0.82-0.28,1.07-0.2
	c0.26,0.08,0.51,0.45,0.76,0.8c0.3,0.43,0.6,0.86,1.07,1.1c0.47,0.24,1.01,0.23,1.53,0.22c0.43-0.01,0.87-0.01,1.08,0.14
	c0.22,0.16,0.34,0.58,0.47,0.99c0.15,0.5,0.31,1.01,0.68,1.38c0.37,0.37,0.89,0.53,1.38,0.68c0.41,0.13,0.84,0.26,0.99,0.47
	c0.16,0.21,0.15,0.66,0.14,1.08c-0.01,0.52-0.02,1.06,0.22,1.53c0.24,0.46,0.68,0.77,1.1,1.07c0.35,0.25,0.72,0.5,0.8,0.76
	c0.08,0.25-0.06,0.66-0.2,1.06c-0.17,0.5-0.35,1.01-0.27,1.53c0.08,0.51,0.4,0.94,0.71,1.35c0.26,0.35,0.53,0.71,0.53,0.98
	c0,0.28-0.27,0.63-0.53,0.98c-0.31,0.41-0.63,0.84-0.71,1.35l1.05,0.17c0.04-0.25,0.28-0.57,0.51-0.87C48.6,33.16,49,32.63,49,32
	C49,31.37,48.6,30.84,48.25,30.38z M43.9,41.84c-0.5,0.15-1.01,0.31-1.38,0.68c-0.37,0.37-0.53,0.89-0.68,1.38
	c-0.12,0.41-0.25,0.84-0.47,0.99c-0.21,0.15-0.66,0.15-1.08,0.14c-0.52-0.01-1.06-0.02-1.53,0.22c-0.46,0.24-0.77,0.68-1.07,1.1
	c-0.25,0.35-0.5,0.72-0.76,0.8c-0.25,0.08-0.66-0.06-1.06-0.2c-0.5-0.17-1.01-0.34-1.53-0.27c-0.51,0.08-0.94,0.4-1.35,0.71
	c-0.35,0.26-0.71,0.53-0.98,0.53s-0.63-0.27-0.98-0.53c-0.41-0.31-0.84-0.63-1.35-0.71c-0.52-0.08-1.04,0.1-1.53,0.27
	c-0.4,0.14-0.82,0.28-1.06,0.2c-0.26-0.08-0.51-0.45-0.76-0.8c-0.3-0.43-0.6-0.86-1.07-1.1c-0.47-0.24-1.01-0.23-1.53-0.22
	c-0.43,0.01-0.87,0.01-1.08-0.14c-0.22-0.16-0.34-0.58-0.47-0.99c-0.15-0.5-0.31-1.01-0.68-1.38c-0.37-0.37-0.89-0.53-1.38-0.68
	c-0.41-0.12-0.84-0.25-0.99-0.47l-0.86,0.63c0.37,0.5,0.99,0.69,1.54,0.86c0.37,0.11,0.76,0.23,0.94,0.41s0.3,0.57,0.41,0.94
	c0.17,0.55,0.36,1.18,0.86,1.54c0.5,0.36,1.15,0.35,1.73,0.34c0.39,0,0.8-0.01,1.03,0.11c0.23,0.12,0.46,0.45,0.68,0.76
	c0.33,0.47,0.71,1.01,1.3,1.21c0.58,0.19,1.2-0.02,1.74-0.21c0.37-0.13,0.76-0.27,1.02-0.22c0.25,0.04,0.57,0.28,0.87,0.51
	C30.84,48.6,31.37,49,32,49c0.63,0,1.16-0.4,1.62-0.75c0.31-0.23,0.63-0.47,0.87-0.51c0.26-0.05,0.65,0.09,1.02,0.22
	c0.54,0.19,1.16,0.4,1.74,0.21c0.6-0.19,0.97-0.73,1.3-1.21c0.22-0.32,0.45-0.65,0.68-0.76c0.23-0.12,0.64-0.11,1.03-0.11
	c0.57,0.01,1.23,0.02,1.73-0.34c0.5-0.37,0.69-0.99,0.86-1.54c0.11-0.37,0.23-0.76,0.41-0.94c0.18-0.18,0.57-0.3,0.94-0.41
	c0.55-0.17,1.18-0.36,1.54-0.86l-0.86-0.62C44.74,41.58,44.31,41.71,43.9,41.84z"/>
<path d="M19.25,39.44v-1.06c0-0.29-0.24-0.53-0.53-0.53h-1.06v1.06h0.53v0.53c0,0.29-0.24,0.53-0.53,0.53s-0.53-0.24-0.53-0.53
	v-3.19c0-0.29,0.24-0.53,0.53-0.53s0.53,0.24,0.53,0.53v0.53h1.06v-0.53c0-0.88-0.72-1.59-1.59-1.59s-1.59,0.72-1.59,1.59v3.19
	c0,0.88,0.72,1.59,1.59,1.59S19.25,40.32,19.25,39.44z M19.78,34.66v4.78c0,0.88,0.72,1.59,1.59,1.59s1.59-0.72,1.59-1.59v-4.78
	h-1.06v4.78c0,0.29-0.24,0.53-0.53,0.53s-0.53-0.24-0.53-0.53v-4.78H19.78z M23.5,36.25v4.78h1.06v-1.06h1.06v1.06h1.06v-4.78
	c0-0.88-0.72-1.59-1.59-1.59S23.5,35.37,23.5,36.25z M25.62,36.25v2.66h-1.06v-2.66c0-0.29,0.24-0.53,0.53-0.53
	S25.62,35.96,25.62,36.25z M30.94,36.25v4.78H32v-1.06h1.06v1.06h1.06v-4.78c0-0.88-0.72-1.59-1.59-1.59
	C31.65,34.66,30.94,35.37,30.94,36.25z M32.53,35.72c0.29,0,0.53,0.24,0.53,0.53v2.66H32v-2.66C32,35.96,32.24,35.72,32.53,35.72z
	 M27.22,35.19v2.65c0,0,0,0,0,0v3.19h1.06v-1.67l1.18,1.47c0.1,0.13,0.25,0.2,0.41,0.2h0.53v-1.06h-0.28l-1.29-1.62
	c0.89-0.14,1.57-0.91,1.57-1.84c0-1.03-0.83-1.86-1.86-1.86h-0.8C27.46,34.66,27.22,34.89,27.22,35.19z M28.28,35.72h0.27
	c0.44,0,0.8,0.36,0.8,0.8s-0.36,0.8-0.8,0.8h-0.27V35.72z M36.78,37.74l-1.1-2.75c-0.1-0.24-0.35-0.37-0.59-0.32
	c-0.25,0.05-0.43,0.27-0.43,0.52v5.84h1.06v-3.09l1.1,2.75c0.08,0.21,0.28,0.33,0.49,0.33c0.03,0,0.07,0,0.1-0.01
	c0.25-0.05,0.43-0.27,0.43-0.52v-5.84h-1.06V37.74z M40.5,35.72h1.06v-1.06h-3.19v1.06h1.06v5.31h1.06V35.72z M44.75,35.72v-1.06
	h-2.12c-0.29,0-0.53,0.24-0.53,0.53v5.31c0,0.29,0.24,0.53,0.53,0.53h2.12v-1.06h-1.59v-1.59h1.59v-1.06h-1.59v-1.59H44.75z
	 M45.28,35.19v5.31c0,0.29,0.24,0.53,0.53,0.53h2.12v-1.06h-1.59v-1.59h1.59v-1.06h-1.59v-1.59h1.59v-1.06h-2.12
	C45.52,34.66,45.28,34.89,45.28,35.19z"/>
<path d="M45.28,32c0-7.32-5.96-13.28-13.28-13.28S18.72,24.68,18.72,32c0,0.53,0.04,1.09,0.11,1.66l1.05-0.13
	c-0.07-0.52-0.1-1.04-0.1-1.53c0-6.74,5.48-12.22,12.22-12.22c6.74,0,12.22,5.48,12.22,12.22c0,0.49-0.03,1.01-0.1,1.53l1.05,0.13
	C45.25,33.09,45.28,32.53,45.28,32z M40.11,42.51l-0.65-0.84c-2.16,1.66-4.74,2.55-7.46,2.55c-2.72,0-5.3-0.88-7.46-2.55l-0.65,0.84
	c2.34,1.81,5.15,2.77,8.11,2.77S37.77,44.32,40.11,42.51z"/>
<path d="M26.69,26.16h-1.06v1.06h0.53v5.31h1.06v-5.84C27.22,26.39,26.98,26.16,26.69,26.16z M29.61,26.16
	c-1.03,0-1.86,0.83-1.86,1.86v2.66c0,1.03,0.83,1.86,1.86,1.86s1.86-0.83,1.86-1.86v-2.66C31.47,26.99,30.63,26.16,29.61,26.16z
	 M30.41,30.67c0,0.44-0.36,0.8-0.8,0.8s-0.8-0.36-0.8-0.8v-2.66c0-0.44,0.36-0.8,0.8-0.8s0.8,0.36,0.8,0.8V30.67z M33.86,26.16
	c-1.03,0-1.86,0.83-1.86,1.86v2.66c0,1.03,0.83,1.86,1.86,1.86s1.86-0.83,1.86-1.86v-2.66C35.72,26.99,34.88,26.16,33.86,26.16z
	 M34.66,30.67c0,0.44-0.36,0.8-0.8,0.8s-0.8-0.36-0.8-0.8v-2.66c0-0.44,0.36-0.8,0.8-0.8s0.8,0.36,0.8,0.8V30.67z"/>
<path d="M37.37,31.76l2.12-4.25l0.95,0.47l-2.12,4.25L37.37,31.76z"/>
<rect x="36.78" y="28.28" width="1.06" height="1.06"/>
<rect x="39.97" y="30.41" width="1.06" height="1.06"/>
</svg>
