<?xml version="1.0" encoding="utf-8"?>
<!-- Generator: Adobe Illustrator 26.1.0, SVG Export Plug-In . SVG Version: 6.00 Build 0)  -->
<svg version="1.1" id="Capa_1" xmlns="http://www.w3.org/2000/svg" xmlns:xlink="http://www.w3.org/1999/xlink" x="0px" y="0px"
	 viewBox="0 0 910.29 910.29" style="enable-background:new 0 0 910.29 910.29;" xml:space="preserve">
<g>
	<g>
		<path d="M636.26,345.5l-0.53-12.35l-12.3-1.26c-47.24-4.85-87.84-22.48-113.59-36.41c-28.2-15.26-45.3-29.58-45.45-29.71
			l-9.23-7.8l-9.24,7.79c-0.17,0.14-17.26,14.46-45.47,29.72c-25.75,13.93-66.36,31.56-113.59,36.41l-12.3,1.26l-0.53,12.35
			c-0.09,2.21-2.07,54.89,18.22,118.67c11.97,37.64,29.26,71.37,51.39,100.24c27.79,36.26,63.23,64.84,105.34,84.95l6.16,2.94
			l6.16-2.94c42.11-20.11,77.55-48.69,105.34-84.95c22.13-28.88,39.42-62.6,51.39-100.24C638.32,400.39,636.35,347.72,636.26,345.5z
			 M455.14,620.54c-35.13-17.85-64.87-42.41-88.46-73.06c-20.1-26.11-35.88-56.75-46.89-91.06c-13.47-41.94-16.49-79.34-17.1-97.71
			c18.95-2.81,38.1-7.55,57.11-14.12c18.58-6.43,37.08-14.62,54.98-24.36c18.16-9.88,31.98-19.31,40.36-25.48
			c8.39,6.17,22.21,15.6,40.36,25.48c17.9,9.73,36.39,17.93,54.98,24.36c19.02,6.58,38.18,11.31,57.13,14.12
			c-0.59,18.19-3.55,55.06-16.83,96.8c-10.97,34.48-26.73,65.27-46.84,91.52C520.3,577.9,490.45,602.6,455.14,620.54z"/>
		<polygon points="533.07,390.11 513.12,410.05 438.78,484.39 401.1,446.72 395.98,441.59 385.87,451.7 385.87,451.7 375.76,461.81 
			438.78,524.83 553.28,410.32 		"/>
	</g>
</g>
</svg>
